<svg width="16" height="16" viewBox="0 0 16 16" fill="none" xmlns="http://www.w3.org/2000/svg">
<path d="M13.6566 2.34343C12.1448 0.83165 10.138 0 8 0C5.86195 0 3.85522 0.83165 2.34343 2.34343C0.83165 3.85522 0 5.86195 0 8C0 10.138 0.83165 12.1448 2.34343 13.6566C3.85522 15.1684 5.86195 16 8 16C10.138 16 12.1448 15.1684 13.6566 13.6566C15.1684 12.1448 16 10.138 16 8C16 5.86195 15.1684 3.85522 13.6566 2.34343ZM13.0135 13.0135C11.6734 14.3535 9.89226 15.0909 8 15.0909C6.10774 15.0909 4.3266 14.3535 2.98653 13.0135C0.222222 10.2492 0.222222 5.75084 2.98653 2.98653C4.3266 1.64646 6.10774 0.909091 8 0.909091C9.89226 0.909091 11.6734 1.64646 13.0135 2.98653C15.7778 5.75084 15.7778 10.2492 13.0135 13.0135Z" fill="black"/>
<path d="M11.5242 4.47515C11.3457 4.2967 11.0595 4.2967 10.8811 4.47515L7.99893 7.3573L5.11678 4.47515C4.93833 4.2967 4.65213 4.2967 4.47368 4.47515C4.29523 4.6536 4.29523 4.93979 4.47368 5.11824L7.35583 8.0004L4.47368 10.8826C4.29523 11.061 4.29523 11.3472 4.47368 11.5257C4.56122 11.6132 4.67907 11.6603 4.79355 11.6603C4.90802 11.6603 5.02587 11.6166 5.11341 11.5257L7.99556 8.6435L10.8777 11.5257C10.9653 11.6132 11.0831 11.6603 11.1976 11.6603C11.3154 11.6603 11.4299 11.6166 11.5174 11.5257C11.6959 11.3472 11.6959 11.061 11.5174 10.8826L8.64202 8.0004L11.5242 5.11824C11.7026 4.93979 11.7026 4.6536 11.5242 4.47515Z" fill="black"/>
</svg>
