<svg width="16" height="16" viewBox="0 0 16 16" fill="none" xmlns="http://www.w3.org/2000/svg">
<g clip-path="url(#clip0)">
<path d="M14.3333 2.6665H1.66666C0.748 2.6665 0 3.4145 0 4.33319V11.6665C0 12.5852 0.748 13.3332 1.66666 13.3332H14.3333C15.252 13.3332 16 12.5852 16 11.6665V4.33319C16 3.4145 15.252 2.6665 14.3333 2.6665ZM15.3333 11.6665C15.3333 12.2178 14.8847 12.6665 14.3333 12.6665H1.66666C1.11531 12.6665 0.666656 12.2178 0.666656 11.6665V4.33319C0.666656 3.78185 1.11531 3.33319 1.66666 3.33319H14.3333C14.8847 3.33319 15.3333 3.78185 15.3333 4.33319V11.6665H15.3333Z" fill="black"/>
<path d="M15.6667 4.6665H0.333344C0.149344 4.6665 0 4.81585 0 4.99985V6.99985C0 7.18385 0.149344 7.33319 0.333344 7.33319H15.6667C15.8507 7.33319 16 7.18385 16 6.99985V4.99985C16 4.81585 15.8507 4.6665 15.6667 4.6665ZM15.3333 6.6665H0.666656V5.33316H15.3333V6.6665H15.3333Z" fill="black"/>
<path d="M6.33334 9.3335H2.33334C2.14934 9.3335 2 9.48284 2 9.66684C2 9.85084 2.14934 10.0002 2.33334 10.0002H6.33334C6.51734 10.0002 6.66669 9.85081 6.66669 9.66681C6.66669 9.48281 6.51734 9.3335 6.33334 9.3335Z" fill="black"/>
<path d="M6.33334 10.6665H2.33334C2.14934 10.6665 2 10.8158 2 10.9998C2 11.1838 2.14934 11.3332 2.33334 11.3332H6.33334C6.51734 11.3332 6.66669 11.1838 6.66669 10.9998C6.66666 10.8158 6.51734 10.6665 6.33334 10.6665Z" fill="black"/>
<path d="M12.9987 8.6665H12.332C11.7807 8.6665 11.332 9.11516 11.332 9.6665V10.3332C11.332 10.8845 11.7807 11.3332 12.332 11.3332H12.9987C13.55 11.3332 13.9987 10.8845 13.9987 10.3332V9.6665C13.9987 9.11519 13.55 8.6665 12.9987 8.6665ZM13.332 10.3332C13.332 10.5172 13.1827 10.6665 12.9987 10.6665H12.332C12.148 10.6665 11.9987 10.5172 11.9987 10.3332V9.66654C11.9987 9.48254 12.148 9.33319 12.332 9.33319H12.9987C13.1827 9.33319 13.332 9.48254 13.332 9.66654V10.3332Z" fill="black"/>
</g>
<defs>
<clipPath id="clip0">
<rect width="16" height="16" fill="white"/>
</clipPath>
</defs>
</svg>
