<svg width="32" height="33" viewBox="0 0 32 33" fill="none" xmlns="http://www.w3.org/2000/svg">
<path opacity="0.79654" d="M16 32.4234C24.8366 32.4234 32 25.2897 32 16.4898C32 7.68987 24.8366 0.556152 16 0.556152C7.16344 0.556152 0 7.68987 0 16.4898C0 25.2897 7.16344 32.4234 16 32.4234Z" fill="white"/>
<path d="M23.1966 11.2965L23.1966 11.2964C22.3974 10.5205 21.2383 10.0191 20.0214 10.0191C19.3055 10.0191 18.6348 10.1788 17.9846 10.5023L17.9844 10.5024C17.3353 10.825 16.8133 11.2626 16.4018 11.8178L16.0001 12.3599L15.5984 11.8178C15.1869 11.2626 14.6649 10.825 14.0158 10.5023L14.0157 10.5023C13.3652 10.1788 12.6945 10.019 11.9789 10.019C10.762 10.019 9.60308 10.5205 8.80362 11.2964M23.1966 11.2965L7.90998 16.6754C7.68378 16.0557 7.5 15.2295 7.5 14.3856C7.5 13.1998 8.00745 12.0692 8.80362 11.2964M23.1966 11.2965C23.9927 12.0692 24.5002 13.1998 24.5 14.3856V14.3857M23.1966 11.2965L24.5 14.3857M8.80362 11.2964L8.45537 10.9377M8.80362 11.2964L8.45537 10.9377M8.45537 10.9377C7.56498 11.8019 7 13.0608 7 14.3856C7 15.2968 7.1973 16.1812 7.44039 16.8471M8.45537 10.9377C9.34594 10.0732 10.6289 9.51904 11.9789 9.51904C12.7734 9.51904 13.5202 9.69746 14.2384 10.0546C14.796 10.3318 15.2727 10.6882 15.6731 11.1239C15.6479 11.1564 15.623 11.1892 15.5984 11.2224L16.0001 11.5201L16.4018 11.2224C16.3772 11.1892 16.3523 11.1564 16.3271 11.1239C16.7275 10.6882 17.2042 10.3318 17.7619 10.0546C18.4798 9.69746 19.2266 9.51907 20.0214 9.51907C21.3713 9.51907 22.6545 10.0732 23.5449 10.9377L7.44039 16.8471M7.44039 16.8471L7.91006 16.6756L7.44039 16.8471ZM22.4821 19.628C22.8363 19.2803 23.1163 18.9814 23.3151 18.7353M22.4821 19.628L22.132 19.271C22.4801 18.9293 22.7447 18.6458 22.9261 18.4212L22.9262 18.421C23.1153 18.187 23.3202 17.8974 23.5593 17.5379L23.5593 17.5378C24.0134 16.855 24.2092 16.3265 24.3772 15.5485L23.3151 18.7353M22.4821 19.628C22.1277 19.9755 21.8405 20.2479 21.6203 20.4453M22.4821 19.628L22.1318 19.2712C22.1319 19.2711 22.1319 19.2711 22.132 19.271M23.3151 18.7353C23.5185 18.4836 23.7334 18.1791 23.9756 17.8147L23.3151 18.7353ZM21.6203 20.4453L22.132 19.271M21.6203 20.4453C21.511 20.5431 21.3754 20.6589 21.2164 20.7946C21.0549 20.9325 20.8693 21.091 20.6627 21.272M21.6203 20.4453L21.2865 20.073C21.2867 20.0729 21.2868 20.0728 21.2869 20.0727M21.6203 20.4453L21.2869 20.0727M21.6203 20.4453L20.6627 21.272M22.132 19.271C21.7801 19.6161 21.499 19.8825 21.2869 20.0727M22.132 19.271L13.4532 23.2825L13.7952 22.9178C14.6924 23.7591 15.3541 24.5383 15.9785 25.4286L15.9786 25.4287C15.9867 25.4403 15.9929 25.4471 15.9964 25.4505M21.2869 20.0727C21.1761 20.1719 21.049 20.2803 20.8971 20.4098C20.7392 20.5445 20.5544 20.7021 20.3333 20.8959M20.3333 20.8959C19.67 21.477 19.154 21.9352 18.7933 22.2653L18.7932 22.2653C18.4255 22.6018 17.9737 23.0645 17.4399 23.6502L17.4398 23.6503C16.8978 24.2451 16.4354 24.8473 16.0363 25.4347L16.0362 25.4348C16.0307 25.4429 16.0269 25.4467 16.0255 25.448M20.3333 20.8959C20.3332 20.896 20.3332 20.896 20.3332 20.896L20.6627 21.272M20.3333 20.8959L20.6627 21.272M16.0255 25.448C16.0224 25.4489 16.0146 25.4506 15.9999 25.4506C15.9985 25.4506 15.9974 25.4506 15.9964 25.4505M16.0255 25.448C16.0254 25.4482 16.0253 25.4483 16.0252 25.4484C16.0249 25.4486 16.0248 25.4487 16.0248 25.4487C16.0248 25.4487 16.0253 25.4483 16.0261 25.4479C16.0269 25.4475 16.0273 25.4474 16.0271 25.4475C16.027 25.4476 16.0265 25.4478 16.0255 25.448ZM15.9964 25.4505C15.9919 25.4503 15.9906 25.4499 15.9916 25.4501C15.993 25.4505 15.9956 25.4513 15.9983 25.4528C15.999 25.4532 15.9996 25.4535 15.9999 25.4537C16.0002 25.4539 16.0002 25.454 15.9999 25.4537C15.9995 25.4534 15.9989 25.4529 15.9979 25.452C15.9975 25.4516 15.997 25.4511 15.9964 25.4505ZM24.5 14.3857C24.5 14.7828 24.4587 15.1707 24.3773 15.5484L24.5 14.3857ZM8.40228 17.6221L7.98616 17.8993L8.40233 17.6222C8.40231 17.6222 8.4023 17.6221 8.40228 17.6221ZM11.6902 21.0324C11.6902 21.0324 11.6902 21.0324 11.6902 21.0324L11.3658 21.4129L11.6902 21.0324Z" fill="black" stroke="black"/>
</svg>
