<svg width="50" height="21" viewBox="0 0 50 21" fill="none" xmlns="http://www.w3.org/2000/svg">
<rect y="0.506348" width="50" height="19.917" fill="#F8E71C"/>
<path d="M17.4648 13.2271C17.4648 13.981 17.1914 14.5688 16.6445 14.9907C16.0977 15.4126 15.3555 15.6235 14.418 15.6235C13.4023 15.6235 12.6211 15.4927 12.0742 15.231V14.27C12.4258 14.4185 12.8086 14.5356 13.2227 14.6216C13.6367 14.7075 14.0469 14.7505 14.4531 14.7505C15.1172 14.7505 15.6172 14.6255 15.9531 14.3755C16.2891 14.1216 16.457 13.77 16.457 13.3208C16.457 13.0239 16.3965 12.7817 16.2754 12.5942C16.1582 12.4028 15.959 12.2271 15.6777 12.0669C15.4004 11.9067 14.9766 11.7251 14.4062 11.522C13.6094 11.2368 13.0391 10.8989 12.6953 10.5083C12.3555 10.1177 12.1855 9.60791 12.1855 8.979C12.1855 8.31885 12.4336 7.79346 12.9297 7.40283C13.4258 7.01221 14.082 6.81689 14.8984 6.81689C15.75 6.81689 16.5332 6.97314 17.248 7.28564L16.9375 8.15283C16.2305 7.85596 15.543 7.70752 14.875 7.70752C14.3477 7.70752 13.9355 7.8208 13.6387 8.04736C13.3418 8.27393 13.1934 8.58838 13.1934 8.99072C13.1934 9.2876 13.248 9.53174 13.3574 9.72314C13.4668 9.91064 13.6504 10.0845 13.9082 10.2446C14.1699 10.4009 14.5684 10.5747 15.1035 10.7661C16.002 11.0864 16.6191 11.4302 16.9551 11.7974C17.2949 12.1646 17.4648 12.6411 17.4648 13.2271ZM24.6016 15.5063L23.5352 12.7817H20.1016L19.0469 15.5063H18.0391L21.4258 6.90479H22.2637L25.6328 15.5063H24.6016ZM23.2246 11.8853L22.2285 9.23096C22.0996 8.89502 21.9668 8.48291 21.8301 7.99463C21.7441 8.36963 21.6211 8.78174 21.4609 9.23096L20.4531 11.8853H23.2246ZM26.8105 15.5063V6.93994H27.8066V14.604H31.5859V15.5063H26.8105ZM37.8203 15.5063H33.0449V6.93994H37.8203V7.82471H34.041V10.5845H37.5918V11.4634H34.041V14.6157H37.8203V15.5063Z" fill="black"/>
</svg>
