<svg width="16" height="17" viewBox="0 0 16 17" fill="none" xmlns="http://www.w3.org/2000/svg">
<path fill-rule="evenodd" clip-rule="evenodd" d="M10.1738 11.3682C9.10742 12.2705 7.74023 12.8037 6.23633 12.8037C2.84375 12.8037 0.0683594 10.041 0.0683594 6.63672C0.0683594 3.24512 2.84375 0.46875 6.23633 0.46875C9.64062 0.46875 12.4043 3.23145 12.4043 6.63672C12.4043 7.55273 12.1973 8.42676 11.832 9.21289C11.6016 9.70605 11.3086 10.1641 10.9668 10.5752L15.7539 15.3613C15.9727 15.5801 15.9727 15.9355 15.7539 16.1543C15.6445 16.2637 15.5078 16.3184 15.3574 16.3184C15.207 16.3184 15.0703 16.2637 14.9609 16.1543L10.1738 11.3682ZM11.2812 6.63574C11.2812 3.86035 9.02539 1.58984 6.23633 1.58984C3.45898 1.58984 1.18945 3.86035 1.18945 6.63574C1.18945 9.41211 3.44531 11.6826 6.23633 11.6826C9.02539 11.6826 11.2812 9.42578 11.2812 6.63574Z" fill="black"/>
</svg>
